<?xml version="1.0" standalone="no"?><!DOCTYPE svg PUBLIC "-//W3C//DTD SVG 1.1//EN" "http://www.w3.org/Graphics/SVG/1.1/DTD/svg11.dtd"><svg t="1568942163560" class="icon" viewBox="0 0 1024 1024" version="1.1" xmlns="http://www.w3.org/2000/svg" p-id="13144" xmlns:xlink="http://www.w3.org/1999/xlink" width="200" height="200"><defs><style type="text/css"></style></defs><path d="M155.648 606.208h254.976c10.24 0 18.944 8.704 18.944 18.944 0 45.056 35.84 80.384 81.408 80.384s81.408-35.328 81.408-80.384c0-10.24 8.704-18.944 18.944-18.944h253.44c7.68 0 14.336 4.608 17.408 11.264-4.096-13.824-11.264-28.16-12.288-30.208 0-0.512-0.512-0.512-0.512-0.512l-81.408-129.024c0-0.512-0.512-0.512-0.512-1.024-1.536-1.536-13.824-17.408-28.16-25.6-14.848-8.704-35.328-10.24-37.888-10.24h-435.2c-3.584 0-20.992 0.512-34.816 8.704-13.824 8.704-24.064 23.552-25.088 25.088 0 0-0.512 0.512-0.512 1.024l-68.608 121.856c-2.048 3.072-8.704 14.848-14.336 33.28 3.584-2.56 7.68-4.608 12.8-4.608z" fill="#a4b0be" p-id="13145"></path><path d="M886.272 651.264c0-1.536-1.024-14.848-3.584-27.648v2.048c0 10.24-8.192 18.944-18.944 18.944h-235.52l-2.56 9.728c-13.312 52.736-60.928 89.088-115.2 89.088-54.784 0-102.4-36.864-115.712-89.088l-2.56-9.728H155.136c-7.68 0-13.824-4.608-16.896-10.752-1.024 9.216-1.024 16.384-1.024 19.456v138.24c0 2.56 1.536 23.552 16.384 37.376 14.848 13.824 38.4 14.848 40.96 14.848h1.024-0.512 629.76c4.608 0 27.648-0.512 43.52-14.848 15.872-14.336 16.896-33.792 16.896-39.424l1.024-138.24zM509.44 368.128c-14.336 0-26.112-11.776-26.112-26.112V192.512c0-14.336 11.776-26.112 26.112-26.112s26.112 11.776 26.112 26.112v150.016c0 14.336-11.776 25.6-26.112 25.6z m174.592-1.024c-14.336 0-26.112-11.776-26.112-26.112 0-6.144 2.048-11.776 5.632-16.384l59.392-73.216c5.12-6.144 12.288-9.728 20.48-9.728 6.144 0 11.776 2.048 16.384 5.632 5.632 4.096 8.704 10.752 9.728 17.408 0.512 6.656-1.536 13.824-5.632 18.944l-59.392 73.216c-5.12 7.168-12.288 10.752-20.48 10.24z m-346.112-1.536c-7.68 0-15.36-3.584-20.48-9.728l-58.368-73.728c-8.704-11.264-7.168-27.648 4.096-36.864 4.608-3.584 10.24-5.632 16.384-5.632 8.192 0 15.36 3.584 20.48 9.728l58.368 73.728c8.704 11.264 7.168 27.648-4.096 36.864-4.608 3.584-10.752 5.632-16.384 5.632z" fill="#a4b0be" p-id="13146"></path></svg>