<?xml version="1.0" standalone="no"?><!DOCTYPE svg PUBLIC "-//W3C//DTD SVG 1.1//EN" "http://www.w3.org/Graphics/SVG/1.1/DTD/svg11.dtd"><svg t="1568871420592" class="icon" viewBox="0 0 1024 1024" version="1.1" xmlns="http://www.w3.org/2000/svg" p-id="17492" xmlns:xlink="http://www.w3.org/1999/xlink" width="200" height="200"><defs><style type="text/css"></style></defs><path d="M201.678799 129.191592l256.599639 559.809729-18.873273 8.648649-256.591952-559.817417z" fill="" p-id="17493"></path><path d="M54.321201 239.932733l414.366367 455.495495-15.36 13.968529-414.366367-455.495496z" fill="" p-id="17494"></path><path d="M457.801802 889.465465c210.642643 0 381.309309-170.666667 381.309309-381.309309H76.492492c0 210.642643 170.666667 381.309309 381.30931 381.309309z" fill="#E2AE48" p-id="17495"></path><path d="M536.984985 802.594595c164.516517 0 299.051051-129.153153 308.276276-291.363364H228.708709c9.225225 162.21021 143.75976 291.363363 308.276276 291.363364z" fill="#FFD255" p-id="17496"></path><path d="M61.885886 500.468468c0 218.33033 177.585586 395.915916 395.915916 395.915916s395.915916-177.585586 395.915916-395.915916H61.885886z m395.915916 379.003003c-206.03003 0-372.852853-161.441441-372.852853-361.321321h744.936937c0.768769 199.111111-166.054054 361.321321-372.084084 361.321321z" fill="" p-id="17497"></path><path d="M306.354354 878.702703h302.894895v61.501501H306.354354z" fill="#E2AE48" p-id="17498"></path><path d="M489.321321 571.963964a97.633634 23.063063 0 1 0 195.267268 0 97.633634 23.063063 0 1 0-195.267268 0Z" fill="#FDF4B3" p-id="17499"></path><path d="M297.129129 876.396396v65.345346h320.576577V876.396396H297.129129z m304.432433 49.96997H314.042042V891.771772h287.51952v34.594594zM71.111111 545.057057h672.672673V561.201201H71.111111zM551.591592 397.453453c0 9.225225 6.15015 16.144144 14.606606 16.144145s14.606607-7.687688 14.606607-16.144145c0-14.606607 4.612613-20.756757 11.531531-30.75075 7.687688-10.762763 17.681682-24.600601 17.681682-51.507508 0-26.138138-9.993994-39.975976-17.681682-51.507507-6.918919-9.993994-11.531532-16.144144-11.531531-30.750751s4.612613-20.756757 11.531531-30.750751c7.687688-10.762763 17.681682-24.600601 17.681682-51.507507 0-9.225225-6.15015-16.144144-14.606607-16.144144s-14.606607 7.687688-14.606606 16.144144c0 14.606607-4.612613 20.756757-11.531532 30.75075-7.687688 10.762763-17.681682 24.600601-17.681681 51.507508 0 26.138138 9.993994 39.975976 17.681681 51.507507 6.918919 9.993994 11.531532 16.144144 11.531532 30.750751s-4.612613 20.756757-11.531532 30.750751c-8.456456 11.531532-17.681682 25.369369-17.681681 51.507507zM410.906907 397.453453c0 9.225225 6.15015 16.144144 14.606607 16.144145s14.606607-7.687688 14.606606-16.144145c0-14.606607 4.612613-20.756757 11.531532-30.75075 7.687688-10.762763 17.681682-24.600601 17.681681-51.507508 0-26.138138-9.993994-39.975976-17.681681-51.507507-6.918919-9.993994-11.531532-16.144144-11.531532-30.750751s4.612613-20.756757 11.531532-30.750751c7.687688-10.762763 17.681682-24.600601 17.681681-51.507507 0-9.225225-6.15015-16.144144-14.606606-16.144144s-14.606607 7.687688-14.606607 16.144144c0 14.606607-4.612613 20.756757-11.531531 30.75075-7.687688 10.762763-17.681682 24.600601-17.681682 51.507508 0 26.138138 9.993994 39.975976 17.681682 51.507507 6.918919 9.993994 11.531532 16.144144 11.531531 30.750751s-4.612613 20.756757-11.531531 30.750751c-8.456456 11.531532-17.681682 25.369369-17.681682 51.507507z" fill="" p-id="17500"></path><path d="M716.876877 877.165165c0 32.288288 23.831832 59.195195 53.045045 59.195195h156.06006c29.213213 0 53.045045-26.138138 53.045045-59.195195V607.327327v-6.15015H716.876877v275.987988z" fill="#F24A47" p-id="17501"></path><path d="M983.63964 595.027027H712.264264V881.009009c0 33.825826 24.600601 60.732733 55.351352 60.732733h161.441441c30.750751 0 55.351351-27.675676 55.351351-60.732733V601.177177c0-1.537538 0-3.843844-0.768768-6.15015z m-17.681682 275.219219c0 29.981982-21.525526 55.351351-47.663664 55.351352H778.378378c-26.138138 0-47.663664-24.600601-47.663663-55.351352V617.321321v-5.381381h235.243243v258.306306z" fill="" p-id="17502"></path><path d="M716.876877 646.534535h162.21021v16.144144H716.876877zM726.870871 856.408408h209.105105v16.144145H726.870871z" fill="" p-id="17503"></path><path d="M899.843844 844.108108h-1.537538c-7.687688 0-13.837838-6.15015-13.837838-13.837838V707.267267c0-7.687688 6.15015-13.837838 13.837838-13.837838h1.537538c7.687688 0 13.837838 6.15015 13.837838 13.837838v122.234235c0 7.687688-6.15015 14.606607-13.837838 14.606606z" fill="#F5615F" p-id="17504"></path></svg>