<?xml version="1.0" standalone="no"?><!DOCTYPE svg PUBLIC "-//W3C//DTD SVG 1.1//EN" "http://www.w3.org/Graphics/SVG/1.1/DTD/svg11.dtd"><svg t="1568866826574" class="icon" viewBox="0 0 1024 1024" version="1.1" xmlns="http://www.w3.org/2000/svg" p-id="2208" xmlns:xlink="http://www.w3.org/1999/xlink" width="200" height="200"><defs><style type="text/css"></style></defs><path d="M257.396802 126.807902l102.761241-42.72286s64.650235-39.254939 73.873942-50.790592c0 0 66.974224 24.239323 124.700658 3.467921-2.323989-0.144497 63.6508 49.779116 76.197931 53.114581l107.469426 47.154092 43.084102 186.942615s52.657008 168.832361 54.944873 291.233114l16.171589 274.784572c0.313076 5.310254-35.642521 15.617686-124.796989 18.856821l-13.522484-92.237065 0.216745 93.284666s-108.492944 28.28523-222.151646 30.585136L280.480151 909.606773l-1.20414-91.008843-13.811477 93.320791-122.870367-5.767827 0.481656-85.457761s6.911759-339.422766 30.00715-392.549389l84.313829-301.335842z" fill="#A096C3" p-id="2209"></path><path d="M324.021825 177.032549l102.7492-42.722859s64.650235-39.254939 73.885983-50.790593c0 0 66.974224 24.239323 124.688618 3.467921-2.311947-0.144497 63.662841 49.779116 76.19793 53.10254l107.481468 47.154092 43.084101 186.942615s52.657008 168.844403 54.944873 291.221073l16.159549 274.784572c0.301035 5.322295-35.63048 15.617686-124.79699 18.868861l-13.522484-92.237065 0.228787 93.272625s-108.504986 28.28523-222.151646 30.597178l-215.841957-30.862088-1.216181-91.008843-13.799435 93.308748-122.870367-5.767826 0.481655-85.44572s6.923801-339.422766 30.019191-392.56143l84.277705-301.323801z" fill="#D72C55" p-id="2210"></path><path d="M282.563311 155.743368l102.749201-42.72286s64.650235-39.254939 73.898024-50.790593c0 0 66.974224 24.239323 124.676576 3.45588-2.323989-0.132455 63.662841 49.779116 76.19793 53.114581l107.481468 47.154092 43.084101 186.942616s52.657008 168.832361 54.944873 291.233114l16.17159 274.77253c0.301035 5.322295-35.642521 15.629727-124.784948 18.868862l-13.522483-92.225024 0.192662 93.260584s-108.468862 28.28523-222.127564 30.597177l-215.853998-30.862088-1.192098-90.996802-13.823518 93.308749-122.858325-5.767827 0.469614-85.445719s6.923801-339.434807 30.019191-392.549389l84.277704-301.347883z" fill="#FFFFFF" p-id="2211"></path><path d="M521.524741 975.425024a6.622766 6.622766 0 0 1-0.842897-0.060207l-215.853998-30.862089a6.020696 6.020696 0 0 1-5.165758-5.876199l-0.216745-15.990969-2.829727 19.109689c-0.457573 3.058514-3.311383 5.478833-6.237441 5.129633l-122.858326-5.767826a6.020696 6.020696 0 0 1-5.743744-6.044779l0.469615-85.44572c0.276952-13.992098 7.212794-341.325306 30.512888-394.909501l84.000752-300.565193a6.020696 6.020696 0 0 1 3.492004-3.937536l102.7492-42.722859c23.829915-14.546002 65.264346-41.193603 71.513829-48.996426a6.05682 6.05682 0 0 1 6.74318-1.890498c0.313076 0.120414 32.367262 11.523612 70.237441 11.523612 18.483537 0 35.377611-2.697272 50.176482-7.995484a6.2254 6.2254 0 0 1 7.273001 2.311947c7.730574 7.26096 63.313641 48.081279 72.705926 50.585889l108.348448 47.455127a5.984572 5.984572 0 0 1 3.443838 4.166322l43.084102 186.942615c0.409407 1.252305 52.825588 170.626529 55.101411 292.461336l16.159548 274.543744a7.754657 7.754657 0 0 1-2.16745 5.755785c-8.609595 9.452493-57.810724 16.918156-128.409407 19.495015h-0.228787a6.032738 6.032738 0 0 1-5.960489-5.153716l-1.372719-9.380245 0.024083 9.536783a5.996613 5.996613 0 0 1-4.503481 5.828034c-1.095767 0.288993-110.455691 28.489934-223.524365 30.801881-0.036124-0.048166-0.072248-0.048166-0.120414-0.048165z m-209.90555-42.120791l210.266792 30.067357c98.570837-2.071119 194.155409-24.010536 215.733584-29.272625l-0.180621-88.552399a6.020696 6.020696 0 0 1 11.981186-0.879021l12.739793 86.878645c76.679586-3.106679 106.710818-11.150329 113.466039-14.70254l-16.027093-272.376293c-2.263782-120.341675-54.162183-288.102352-54.692004-289.788147l-42.518156-184.438006-104.711947-45.937911c-9.693321-2.516651-60.231044-38.604704-75.186454-51.777987-15.30461 5.033302-32.439511 7.586077-50.983254 7.586077-32.788711 0-60.760865-7.863029-70.610725-10.993791-15.316651 14.18476-66.25174 45.263594-72.453057 49.032549l-100.858702 42.012418-83.495014 298.530197c-22.637817 52.199436-29.718156 387.672625-29.790405 391.044215l-0.445531 79.581561 111.647789 5.250047 13.028787-87.926246a6.020696 6.020696 0 1 1 11.969143 0.794732l1.11985 85.867168z" fill="#040000" p-id="2212"></path><path d="M518.393979 73.440452c19.193979 0.770649 40.495202-0.987394 60.700659-8.248354-2.323989-0.132455 63.638758 49.779116 76.19793 53.114581l107.481468 47.154092 43.060019 186.954657s52.681091 168.832361 54.956914 291.221072l16.183631 274.772531c0.288993 5.322295-35.654563 15.617686-124.809031 18.868862l-13.522483-92.212982 0.216745 93.248541s-107.397178 27.984196-220.465852 30.549013l52.825588-180.355974-40.290498-97.161994 100.100094-435.790029-30.199812-176.153527-82.435372-5.960489z" fill="#F0EFEF" p-id="2213"></path><path d="M510.302164 975.075823l54.535465-186.220132-40.21825-96.981373 0.43349-1.878457 99.835184-434.609972-28.97159-169.025024-1.878457-1.408842-76.065475-5.502917 0.674318-12.017309c2.612982 0.108373 5.27413 0.156538 7.971401 0.156538 17.616557 0 33.776105-2.432361 48.08128-7.236877l0.553904-1.155974 2.781561-0.012041 12.775918-4.58777-2.203575 4.575729h8.82634l-8.778175 6.454186c2.360113 1.878457 5.599247 4.395108 9.789652 7.561994l7.52587 0.541863 0.999436 5.840075c24.468109 18.122295 44.830103 31.572531 49.887488 32.909125l111.117968 48.671308 43.746378 189.904798c0.409407 1.252305 52.849671 170.614487 55.113453 292.449294l16.17159 274.543744a7.754657 7.754657 0 0 1-2.179492 5.755786c-8.609595 9.440452-57.822766 16.906115-128.421449 19.495014l-5.394544 0.192662-2.143368-14.570084 0.036125 14.040263-4.515523 1.180056c-1.083725 0.276952-109.371966 28.200941-221.83857 30.753716l-8.248353 0.180621z m26.936594-284.249106l40.362747 97.354656-51.091627 174.431609c95.126999-3.20301 185.4254-23.914205 206.329257-28.995672l-0.385325-172.384572 24.901599 169.831796c76.703669-3.118721 106.734901-11.162371 113.490123-14.70254l-16.039135-272.376293c-2.25174-120.377799-54.174224-288.09031-54.704045-289.776106l-42.494074-184.450047-104.711947-45.937911c-6.959925-1.794167-27.622954-16.075259-42.975729-27.177423l0.024083 0.144497 27.261712 158.934337-99.967639 435.103669z" fill="#040000" p-id="2214"></path><path d="M518.393979 69.70762c18.628034 0.758608 39.291063-0.903104 58.89445-7.850988a3.612418 3.612418 0 0 1 2.047037-0.409407 3.732832 3.732832 0 0 1 3.311383 2.492568 3.756914 3.756914 0 0 1-1.180057 4.214487c-1.011477 1.03556 3.082596-2.9381 3.227093-2.805644 2.095202 1.721919 5.225964 4.190405 9.103293 7.140546 19.0254 14.594167 54.126058 39.977422 62.470743 42.193038a3.660583 3.660583 0 0 1 0.698401 0.252869l107.336971 47.105927a3.817121 3.817121 0 0 1 2.179492 2.612982l43.047977 186.834243c1.758043 5.611289 52.75334 170.951646 55.077328 291.955597l16.17159 274.784572v0.024083a3.648542 3.648542 0 0 1-0.999435 2.781562c-2.697272 3.492004-10.740922 7.236877-25.022014 10.174976-16.0873 3.323424-40.952775 6.586642-76.089557 8.657761-8.091816 0.469614-16.833866 0.891063-26.310443 1.228222a3.696707 3.696707 0 0 1-3.841204-3.20301h-0.024083l-5.900282-40.338664 0.096331 40.820319a3.780997 3.780997 0 0 1-2.938099 3.684666c-3.672625 0.939229-109.600753 28.128692-221.284666 30.621261v-7.537911c101.954468-2.287865 199.032173-25.323048 216.672812-29.706115l-0.216745-90.057573a3.780997 3.780997 0 0 1 7.513829-0.818815l13.028787 88.901599c7.923236-0.301035 15.497272-0.710442 22.734148-1.119849 34.811665-2.059078 59.32794-5.238006 75.06604-8.489182 13.570649-2.793603 19.820132-4.575729 19.97667-5.213923l-16.17159-274.724365h0.036124l-0.036124-0.18062c-2.263782-120.209219-53.271119-285.260583-54.752211-290.041016l-0.120414-0.385325-42.662653-185.100282-105.506679-46.287112c-9.898024-2.986265-45.552587-28.622389-64.806773-43.397178a476.441769 476.441769 0 0 1-9.295955-7.333208 24.022578 24.022578 0 0 1-1.770085-1.613546c-19.988711 6.779304-40.892568 8.428975-59.725306 7.682408l-0.036124-7.549953z" fill="#040000" p-id="2215"></path><path d="M459.210536 62.229915s61.555597 25.744497 124.700659 3.45588l17.014487 201.910066-75.198495 438.547507-83.218062-499.597366 16.701411-144.316087z" fill="#040000" p-id="2216"></path><path d="M459.210536 62.229915s61.555597 25.744497 124.700659 3.45588l17.014487 201.910066-75.198495 438.547507-83.218062-499.597366 16.701411-144.316087z" fill="#040000" p-id="2217"></path><path d="M525.739229 709.551082a3.407714 3.407714 0 0 1-3.359549-2.841769L439.149577 207.099906a3.600376 3.600376 0 0 1-0.024083-0.95127l16.68937-144.316087a3.419755 3.419755 0 0 1 4.708184-2.757478c0.288993 0.120414 29.874694 12.28222 68.250611 12.28222 19.121731 0 37.292192-2.986265 53.993603-8.886548a3.395673 3.395673 0 0 1 4.539605 2.926059l17.014488 201.910065a3.492004 3.492004 0 0 1-0.036125 0.866981l-75.198494 438.547507a3.383631 3.383631 0 0 1-3.347507 2.829727z m-79.774224-503.08937l79.810348 479.199248 71.718532-418.209596-16.617121-197.141674a170.144873 170.144873 0 0 1-52.103105 7.87507c-31.65682 0-56.99191-7.766698-66.68523-11.210536l-16.123424 139.487488z" fill="#040000" p-id="2218"></path><path d="M525.763311 712.176105a6.044779 6.044779 0 0 1-5.659454-3.949576L357.195861 262.357855a5.996613 5.996613 0 0 1 1.119849-6.020696l22.252493-25.419379-25.672248-25.672248a6.020696 6.020696 0 0 1-1.336595-6.47827l37.316275-94.18777a6.068862 6.068862 0 0 1 2.263782-2.793603l36.389087-24.142992 25.913076-19.495014a6.020696 6.020696 0 1 1 9.59699 5.502917L448.626152 206.389464l83.073566 498.778551a6.008655 6.008655 0 0 1-5.936407 7.00809zM369.73095 261.575165l139.439323 381.639887-72.56143-435.681656a5.575165 5.575165 0 0 1-0.036124-1.673753l14.907243-129.685795-15.015616 11.282784-35.100658 23.312136-35.160866 88.757102 26.852305 26.852305a6.020696 6.020696 0 0 1 0.276952 8.224271l-23.601129 26.972719z" fill="#040000" p-id="2219"></path><path d="M525.763311 712.176105a6.020696 6.020696 0 0 1-5.960489-6.887676l71.537912-498.116275-13.414111-140.920414a6.020696 6.020696 0 0 1 9.801693-5.238005l32.054186 26.009407 32.644215 21.180809a6.117027 6.117027 0 0 1 2.287864 2.76952l36.196426 88.516275a6.020696 6.020696 0 0 1-1.432926 6.646849l-26.960677 25.575917 23.336218 25.286924c1.517215 1.637629 1.998871 3.973659 1.252305 6.068861L531.434807 708.142239a6.020696 6.020696 0 0 1-5.671496 4.033866z m65.505174-632.787206L603.394167 206.750706a5.70762 5.70762 0 0 1-0.036124 1.432925l-62.844026 437.523989L674.546754 262.502352l-24.91364-26.996802a6.020696 6.020696 0 0 1 0.276952-8.453057l28.297272-26.828222-33.920602-82.965193-31.584572-20.530574-21.433679-17.339605zM298.482032 923.538664c-0.036124-24.371778-0.86698-597.542051 6.5746-636.580244 7.09238-37.280151-13.955974-134.863594-14.172719-135.838947l11.776482-2.564816c0.891063 4.106115 21.770837 100.991157 14.232926 140.655503-7.236877 37.918344-6.369897 628.343932-6.357855 634.304421l-12.053434 0.024083zM737.607526 938.843274c-0.288993-218.491063-1.998871-638.169708-6.333772-662.685983-5.683537-32.25889 10.945626-116.054939 11.656067-119.60715l11.800565 2.360113c-0.168579 0.842897-16.894073 85.108561-11.607902 115.151834 5.599247 31.65682 6.49031 638.928316 6.526434 664.757103l-12.041392 0.024083z" fill="#040000" p-id="2220"></path><path d="M527.48523 970.018438l-11.981185-1.228222 19.193979-187.436312-14.847036-74.006397 11.800564-2.372154 15.027658 74.909501c0.120414 0.60207 0.156538 1.204139 0.08429 1.794168l-19.27827 188.339416z" fill="#040000" p-id="2221"></path><path d="M481.595484 772.864722a20.374036 18.531703 0 1 0 40.748072 0 20.374036 18.531703 0 1 0-40.748072 0Z" fill="#040000" p-id="2222"></path><path d="M501.96952 794.804139c-13.125118 0-23.805833-9.837817-23.805832-21.939417s10.680715-21.939417 23.805832-21.939416c13.113076 0 23.793791 9.837817 23.793791 21.939416s-10.680715 21.939417-23.793791 21.939417z m0-37.063405c-9.356162 0-16.966322 6.779304-16.966322 15.123988s7.61016 15.123989 16.966322 15.123989 16.966322-6.779304 16.966322-15.123989-7.61016-15.123989-16.966322-15.123988z" fill="#040000" p-id="2223"></path><path d="M162.281844 935.748636l1.432926-73.031044 136.633678 12.498965-9.476576 67.949577z" fill="#040000" p-id="2224"></path><path d="M162.281844 935.748636l1.432926-73.031044 136.633678 12.498965-9.476576 67.949577z" fill="#040000" p-id="2225"></path><path d="M290.871872 946.573848h-0.192662l-128.590028-7.405457a3.419755 3.419755 0 0 1-3.215052-3.479962l1.432926-73.031044a3.395673 3.395673 0 0 1 3.72079-3.323425l136.633678 12.498966a3.395673 3.395673 0 0 1 3.070555 3.865287l-9.476576 67.949576a3.431797 3.431797 0 0 1-3.383631 2.926059z m-125.110066-14.040264l122.171966 7.044215 8.549389-61.290687-129.420884-11.836689-1.300471 66.083161z" fill="#040000" p-id="2226"></path><path d="M757.861148 940.517027l-10.138853-70.996049 136.826341-10.042521 1.396801 67.2873z" fill="#040000" p-id="2227"></path><path d="M757.861148 940.517027l-10.138853-70.996049 136.826341-10.042521 1.396801 67.2873z" fill="#040000" p-id="2228"></path><path d="M757.861148 943.924741a3.395673 3.395673 0 0 1-3.37159-2.926058l-10.138852-70.996049a3.347507 3.347507 0 0 1 0.722483-2.625023 3.2873 3.2873 0 0 1 2.408279-1.252305l136.82634-10.042521a3.2873 3.2873 0 0 1 2.540734 0.86698 3.37159 3.37159 0 0 1 1.119849 2.456444l1.38476 67.2873a3.407714 3.407714 0 0 1-3.046472 3.467921l-128.08429 13.75127-0.361241 0.012041z m-6.249483-71.260959l9.1635 64.096331 121.678269-13.052869-1.252305-60.556162-129.589464 9.5127z" fill="#040000" p-id="2229"></path></svg>