<?xml version="1.0" standalone="no"?><!DOCTYPE svg PUBLIC "-//W3C//DTD SVG 1.1//EN" "http://www.w3.org/Graphics/SVG/1.1/DTD/svg11.dtd"><svg t="1568866846118" class="icon" viewBox="0 0 1024 1024" version="1.1" xmlns="http://www.w3.org/2000/svg" p-id="2346" xmlns:xlink="http://www.w3.org/1999/xlink" width="200" height="200"><defs><style type="text/css"></style></defs><path d="M870.4 959H153.6c-37.1 0-67.2-30.1-67.2-67.2V264.6c0-37.1 30.1-67.2 67.2-67.2h158.7c12.4 0 22.4 10 22.4 22.4s-10 22.4-22.4 22.4H153.6c-12.3 0-22.4 10.1-22.4 22.4v627.2c0 12.3 10.1 22.4 22.4 22.4h716.8c12.3 0 22.4-10.1 22.4-22.4V264.6c0-12.3-10.1-22.4-22.4-22.4H678.2c-12.4 0-22.4-10-22.4-22.4s10-22.4 22.4-22.4h192.2c37.1 0 67.2 30.1 67.2 67.2v627.2c0 37.1-30.1 67.2-67.2 67.2z" fill="#DD4238" p-id="2347"></path><path d="M780.8 63H243.2c-12.4 0-22.4 10-22.4 22.4v627.2c0 12.4 10 22.4 22.4 22.4h537.6c12.4 0 22.4-10 22.4-22.4V85.4c0-12.4-10-22.4-22.4-22.4z m-201.1 97.7l-30.9 53.5h13.6c9.3 0 16.8 7.5 16.8 16.8s-7.5 16.8-16.8 16.8h-33.6v22.4h33.6c9.3 0 16.8 7.5 16.8 16.8s-7.5 16.8-16.8 16.8h-33.6v33.6c0 9.3-7.5 16.8-16.8 16.8s-16.8-7.5-16.8-16.8v-33.6h-33.6c-9.3 0-16.8-7.5-16.8-16.8s7.5-16.8 16.8-16.8h33.6v-22.4h-33.6c-9.3 0-16.8-7.5-16.8-16.8s7.5-16.8 16.8-16.8h13.6l-30.9-53.5c-4.6-8-1.9-18.3 6.1-22.9 8-4.6 18.3-1.9 22.9 6.1l38.7 66.9 38.7-66.9c4.6-8 14.9-10.8 22.9-6.1 8 4.5 10.8 14.8 6.1 22.9z" fill="#3E6493" p-id="2348"></path><path d="M892.8 936.6H131.2c-24.7 0-44.8-20.1-44.8-44.8V421.4h851.2v470.4c0 24.7-20.1 44.8-44.8 44.8z" fill="#DD4238" p-id="2349"></path></svg>