<?xml version="1.0" standalone="no"?><!DOCTYPE svg PUBLIC "-//W3C//DTD SVG 1.1//EN" "http://www.w3.org/Graphics/SVG/1.1/DTD/svg11.dtd"><svg t="1568866858683" class="icon" viewBox="0 0 1024 1024" version="1.1" xmlns="http://www.w3.org/2000/svg" p-id="2470" xmlns:xlink="http://www.w3.org/1999/xlink" width="200" height="200"><defs><style type="text/css"></style></defs><path d="M242.6 448h541v69.8h-541V448z" fill="#00E7DD" p-id="2471"></path><path d="M674.6 561.2H343c-9.6 0-17.5 7.8-17.5 17.5 0 9.6 7.8 17.5 17.5 17.5h331.6c9.6 0 17.5-7.8 17.5-17.5-0.1-9.7-7.9-17.5-17.5-17.5z m104.7-192H756c-0.3-0.6-0.5-1.3-0.8-1.9L615.8 143.5c-9.6-16.7-30.9-22.4-47.6-12.8L538 148.1c-16.7 9.6-22.4 30.9-12.7 47.6l110.3 173.5H400.7l111.6-174c9.8-16.8 4-38.3-13-48l-30.7-17.6c-17-9.7-38.7-3.9-48.5 12.9L278.3 368.4c-0.2 0.3-0.2 0.5-0.4 0.8h-39.7c-19.3 0-34.9 15.6-34.9 34.9V439c0 13.1 7.3 24.3 17.9 30.3-0.2 1.5-0.5 3-0.5 4.6l17.5 261.8c0 77.1 62.5 139.6 139.6 139.6h261.8c77.1 0 139.6-62.5 139.6-139.6L796.7 474c0-1.6-0.3-3.1-0.5-4.6 10.6-6 17.9-17.2 17.9-30.3v-34.9c0.1-19.3-15.5-35-34.8-35zM564.2 193.4c-4.8-8.3-2-19 6.4-23.8 8.3-4.8 19-2 23.8 6.4L716 369.2h-40.2L564.2 193.4zM442 175.3c4.9-8.4 15.7-11.3 24.2-6.4s11.4 15.6 6.5 24l-113 176.4h-41l123.3-194z m302.4 560.4c0 57.8-46.9 104.7-104.7 104.7H377.9c-57.8 0-104.7-46.9-104.7-104.7l-17.5-244.3c0-9.6 7.8-17.5 17.5-17.5h471.2c9.6 0 17.5 7.8 17.5 17.5l-17.5 244.3zM761.8 439H255.7c-9.6 0-17.5-7.8-17.5-17.5 0-9.6 7.8-17.5 17.5-17.5h506.1c9.6 0 17.5 7.8 17.5 17.5s-7.8 17.5-17.5 17.5z m-87.2 209.5H343c-9.6 0-17.5 7.8-17.5 17.5 0 9.6 7.8 17.5 17.5 17.5h331.6c9.6 0 17.5-7.8 17.5-17.5-0.1-9.7-7.9-17.5-17.5-17.5z m0 87.2H343c-9.6 0-17.5 7.8-17.5 17.5 0 9.6 7.8 17.5 17.5 17.5h331.6c9.6 0 17.5-7.8 17.5-17.5-0.1-9.7-7.9-17.5-17.5-17.5z" fill="#008CFF" p-id="2472"></path></svg>