<?xml version="1.0" standalone="no"?><!DOCTYPE svg PUBLIC "-//W3C//DTD SVG 1.1//EN" "http://www.w3.org/Graphics/SVG/1.1/DTD/svg11.dtd"><svg t="1568866870427" class="icon" viewBox="0 0 1024 1024" version="1.1" xmlns="http://www.w3.org/2000/svg" p-id="2589" xmlns:xlink="http://www.w3.org/1999/xlink" width="200" height="200"><defs><style type="text/css"></style></defs><path d="M510.136 463.64l-199.432-50.688a95.904 95.904 0 0 0-13.256-22.256c28.336-10.256 49.464-30.32 54.096-51.536a8 8 0 0 0-5.408-9.336l-17.072-5.392 9.168-14.088a8 8 0 0 0-1.928-10.784c-18.28-13.6-48.928-15.952-78.08-5.992l-0.128 0.048c-1.328-27.552-13.952-51.872-32.912-62.824a8.008 8.008 0 0 0-10.096 1.744l-11.744 13.816-11.752-13.816a8 8 0 0 0-10.096-1.744c-18.96 10.944-31.584 35.264-32.912 62.824l-0.136-0.048c-29.168-9.96-59.808-7.608-78.08 5.992a8 8 0 0 0-1.928 10.784L77.6 324.432l-17.072 5.392a8 8 0 0 0-5.408 9.336c4.632 21.216 25.76 41.28 54.096 51.536-16.488 20.744-23.144 45.248-17.008 64.376a8 8 0 0 0 8.888 5.456l18.36-2.96-0.968 16.872a8 8 0 0 0 6.672 8.344c2.904 0.488 5.888 0.72 8.928 0.72 13.416 0 27.944-4.64 41.408-12.92l79.024 156.56-5.832 22.952v0.016l-7.32 28.8-0.008 0.008-9.584 37.736-6.824 26.848c-0.648 2.56-1.464 5.048-2.304 7.52a106.136 106.136 0 0 1-5.608 13.24 107.984 107.984 0 0 1-4.696 8.208c-0.544 0.856-1.12 1.68-1.696 2.52a98.4 98.4 0 0 1-3.648 5.04c-0.584 0.744-1.2 1.456-1.8 2.184a96.8 96.8 0 0 1-4.128 4.744c-0.72 0.76-1.488 1.472-2.232 2.216a94.4 94.4 0 0 1-4.288 4.104c-1.088 0.952-2.24 1.832-3.376 2.744-1.248 1.008-2.456 2.048-3.76 3-2.504 1.824-5.096 3.56-7.8 5.168l-60.704 36.104a16.32 16.32 0 0 0-7.832 16.408 16.304 16.304 0 0 0 12.16 13.504l172.56 43.856a16.312 16.312 0 0 0 17.128-6.072 16.312 16.312 0 0 0 0.96-18.152l-36.104-60.704a98.32 98.32 0 0 1-10.856-74.968l29.568-116.36 217.08-150.328c4.544-2.704 7-7.84 6.24-13.072a12.96 12.96 0 0 0-9.68-10.768zM969.064 840.296l-60.712-36.104c-1.344-0.8-2.584-1.712-3.872-2.568 2.4-4.744 4.2-9.592 5.272-14.488a8 8 0 0 0-5.408-9.336l-25.248-7.976 13.664-21a8 8 0 0 0-1.928-10.784c-8.864-6.6-20.072-11.064-32.592-13.392l-24.776-97.504 118.96-235.728a12.992 12.992 0 0 0-0.76-14.472 12.968 12.968 0 0 0-13.656-4.832L577.84 463.64a13.008 13.008 0 0 0-9.688 10.784c-0.76 5.24 1.696 10.368 5.784 12.776l217.544 150.624 22.16 87.216c-7.392 1.304-14.84 3.04-22.224 5.56-1.08 0.368-2.168 0.752-3.24 1.152-0.824-36.392-17.032-68.784-41.76-83.064a8.008 8.008 0 0 0-10.096 1.744l-17.136 20.152-17.136-20.152a8.008 8.008 0 0 0-10.096-1.744c-24.728 14.28-40.928 46.664-41.752 83.064-1.08-0.4-2.168-0.784-3.248-1.152-37.208-12.712-76.24-9.784-99.408 7.448a8 8 0 0 0-1.928 10.784l13.656 21-25.248 7.976a8 8 0 0 0-5.408 9.336c6 27.456 34.04 53.448 71.432 66.224l0.672 0.224c-22.536 26.928-31.888 59.248-23.888 84.208a7.992 7.992 0 0 0 8.888 5.456l26.864-4.336-1.424 24.96a8 8 0 0 0 6.664 8.344c3.664 0.608 7.432 0.912 11.272 0.912 26.68 0 56.984-14.416 80.056-38.76 3.6-3.8 6.952-7.76 10.024-11.84 3.08 4.088 6.432 8.048 10.024 11.84 26.4 27.84 62.192 42.712 91.336 37.848a8 8 0 0 0 6.664-8.344l-1.432-24.96 26.864 4.336a7.96 7.96 0 0 0 8.888-5.456c3.992-12.44 3.656-26.72-0.464-41.24l103.656-26.344a16.32 16.32 0 0 0 12.168-13.504 16.272 16.272 0 0 0-7.816-16.416zM537.576 414.144a8 8 0 0 0 8-8V310.04a8 8 0 0 0-16 0v96.104a8 8 0 0 0 8 8zM483.024 418.72a7.984 7.984 0 0 0 11.136 1.968 8 8 0 0 0 1.976-11.136l-56-80.104a8 8 0 1 0-13.112 9.16l56 80.112zM635.024 329.456l-56 80.104a8 8 0 0 0 13.104 9.168l56-80.104a8 8 0 0 0-13.104-9.168zM674.968 242.856a8 8 0 0 0 6.088 7.768l35.96 8.84a65.704 65.704 0 0 1 48.264 48.256l8.84 35.96a8 8 0 0 0 15.536 0l8.84-35.96a65.728 65.728 0 0 1 48.264-48.256l35.96-8.84a8.008 8.008 0 0 0 0-15.536l-35.96-8.84a65.728 65.728 0 0 1-48.264-48.256l-8.84-35.96a8 8 0 0 0-15.536 0l-8.84 35.96a65.704 65.704 0 0 1-48.264 48.256l-35.96 8.84c-3.568 0.88-6.088 4.088-6.088 7.768z" fill="#E6E7E8" p-id="2590"></path><path d="M431.144 784.248l-23.744-5.84a40.672 40.672 0 0 1-29.872-29.88l-5.84-23.744a8 8 0 0 0-15.536 0l-5.84 23.744a40.696 40.696 0 0 1-29.872 29.88l-23.744 5.84a8 8 0 0 0 0 15.536l23.744 5.84a40.68 40.68 0 0 1 29.872 29.872l5.84 23.744a8 8 0 0 0 15.536 0l5.84-23.744a40.68 40.68 0 0 1 29.872-29.872l23.744-5.84a8 8 0 0 0 0-15.536zM546.344 163.96l23.744 5.84a40.688 40.688 0 0 1 29.88 29.872l5.84 23.744a8 8 0 0 0 15.536 0l5.832-23.744a40.672 40.672 0 0 1 29.88-29.872l23.752-5.84a8.008 8.008 0 0 0 0-15.536l-23.752-5.84a40.688 40.688 0 0 1-29.88-29.88l-5.832-23.744a7.984 7.984 0 0 0-15.536 0l-5.84 23.744a40.696 40.696 0 0 1-29.88 29.88l-23.744 5.84a8.008 8.008 0 0 0 0 15.536z" fill="#E6E7E8" p-id="2591"></path><path d="M110.48 434.392c15.48 2.752 34.576-3.392 51.48-16.704l-35.52-70.368a5.04 5.04 0 0 1 5.576-7.464l158.128 40.184c-3.432-12.472-10.32-25.408-20.632-37a111.632 111.632 0 0 0-2.44-2.656c3.256-0.832 6.52-1.84 9.792-3.024 27.44-9.984 46.84-29.816 50.856-49.4l-27.112-9.12 14.904-24.416c-15.672-12.424-43.272-15.144-70.712-5.152-3.792 1.376-7.416 2.96-10.88 4.688 0.176-2.48 0.28-5 0.28-7.56 0-29.2-11.992-54.208-29.032-64.688l-17.84 22.36-17.84-22.36c-17.032 10.472-29.032 35.488-29.032 64.688 0 2.552 0.096 5.072 0.28 7.56a105.04 105.04 0 0 0-10.88-4.688c-27.44-9.984-55.048-7.272-70.712 5.152l14.904 24.416-27.112 9.12c4.016 19.592 23.416 39.416 50.856 49.4 3.272 1.192 6.536 2.192 9.792 3.024-0.824 0.864-1.64 1.752-2.44 2.656-19.416 21.816-27.08 48.472-21.32 67.624l28.192-4.84-1.536 28.568z" fill="#FFD7E5" p-id="2592"></path><path d="M140.712 309.28c2.16 0.576 4.328 0.224 6.152-0.752l28.592 7.664c0.144 0.552 0.368 1.064 0.592 1.584l-17.824 23.688a8.416 8.416 0 0 0-5.312 3.2c-0.104 0.136-0.12 0.312-0.216 0.456l15.336 3.896c-0.008-0.056 0.016-0.112 0.008-0.16l17.8-23.664c1 0.12 1.984 0.088 2.944-0.024l17.816 23.688c-0.224 2.064 0.256 4.208 1.6 5.992a8.464 8.464 0 1 0 13.528-10.184 8.416 8.416 0 0 0-5.312-3.2l-17.824-23.696c0.216-0.504 0.392-1.024 0.536-1.568l28.648-7.68c1.824 0.976 3.992 1.328 6.152 0.752a8.456 8.456 0 1 0-4.384-16.352c-2.16 0.576-3.856 1.968-4.952 3.728l-28.64 7.672a12.384 12.384 0 0 0-2.496-1.96V270.4c1.416-1.512 2.32-3.512 2.32-5.752a8.464 8.464 0 1 0-16.928 0c0 2.24 0.904 4.24 2.32 5.752v32.008a12.312 12.312 0 0 0-2.496 1.912l-28.64-7.672a8.368 8.368 0 0 0-4.952-3.728 8.464 8.464 0 1 0-4.368 16.36z" fill="#FA759E" p-id="2593"></path><path d="M216.712 705.472a107 107 0 0 1-49 65.592l-60.704 36.104c-6.4 3.808-5 13.448 2.216 15.288l172.552 43.856c7.216 1.832 13.048-5.976 9.24-12.376l-36.104-60.704a106.976 106.976 0 0 1-11.736-81.024l30.312-119.264 220.008-152.328a5.04 5.04 0 0 0-1.336-9.216L132.016 339.864a5.04 5.04 0 0 0-5.576 7.464l120.584 238.888-30.312 119.256z" fill="#D4FBFF" p-id="2594"></path><path d="M205.688 446.016l50.984 99.984a18.912 18.912 0 0 0 27.552 7l155.872-106.984H205.688z" fill="#FA759E" p-id="2595"></path><path d="M782.488 592.944l25.08 98.688a100.352 100.352 0 0 1 28.84 2.576l-27.448-107.992 120.584-238.888a5.04 5.04 0 0 0-5.576-7.464L563.816 431.392a5.04 5.04 0 0 0-1.336 9.216l220.008 152.336zM948.976 807.168l-60.704-36.104c-4.984-2.968-9.608-6.4-13.992-10.08-9.328 21.552-32.112 41.92-62.536 53-4.256 1.552-8.512 2.856-12.744 3.936a128.872 128.872 0 0 1 24.376 35.888l123.392-31.36c7.208-1.832 8.608-11.472 2.208-15.28z" fill="#D4FBFF" p-id="2596"></path><path d="M615.896 446.016l155.872 106.984a18.912 18.912 0 0 0 27.552-7l50.984-99.984H615.896z" fill="#FA759E" p-id="2597"></path><path d="M765.896 103.936l8.84 35.96a73.912 73.912 0 0 0 54.12 54.12l35.96 8.84-35.96 8.84a73.912 73.912 0 0 0-54.12 54.12l-8.84 35.96-8.84-35.96a73.912 73.912 0 0 0-54.12-54.12l-35.96-8.84 35.96-8.84a73.912 73.912 0 0 0 54.12-54.12l8.84-35.96zM347.912 686.696l5.84 23.744a48.8 48.8 0 0 0 35.736 35.736l23.744 5.84-23.744 5.84a48.8 48.8 0 0 0-35.736 35.736l-5.84 23.744-5.84-23.744a48.8 48.8 0 0 0-35.736-35.736l-23.744-5.84 23.744-5.84a48.8 48.8 0 0 0 35.736-35.736l5.84-23.744z" fill="#0089EF" p-id="2598"></path><path d="M597.576 50.864l5.84 23.744a48.8 48.8 0 0 0 35.736 35.736l23.744 5.84-23.744 5.84a48.8 48.8 0 0 0-35.736 35.736l-5.84 23.744-5.84-23.744a48.8 48.8 0 0 0-35.736-35.736l-23.744-5.84 23.744-5.84a48.8 48.8 0 0 0 35.736-35.736l5.84-23.744z" fill="#6DC9F7" p-id="2599"></path><path d="M877.944 749.68l-35.288-11.872 19.4-31.776c-20.4-16.176-56.328-19.712-92.048-6.712-4.936 1.792-9.656 3.848-14.16 6.096 0.232-3.232 0.36-6.512 0.36-9.84 0-38.008-15.616-70.568-37.784-84.2L695.2 640.48l-23.224-29.104c-22.176 13.632-37.784 46.192-37.784 84.2 0 3.328 0.128 6.608 0.36 9.84a135.904 135.904 0 0 0-14.16-6.096c-35.72-13-71.648-9.464-92.048 6.712l19.4 31.776-35.288 11.872c5.232 25.496 30.48 51.304 66.2 64.304 4.256 1.552 8.512 2.856 12.744 3.936-1.072 1.128-2.136 2.28-3.184 3.456-25.272 28.392-35.248 63.096-27.752 88.024l36.696-6.296-2 37.176c25.632 4.552 58.936-9.384 84.208-37.784a133.552 133.552 0 0 0 15.832-21.848 133.08 133.08 0 0 0 15.832 21.848c25.272 28.392 58.576 42.336 84.208 37.784l-2-37.176 36.696 6.296c7.496-24.928-2.48-59.624-27.752-88.024a131.312 131.312 0 0 0-3.184-3.456 138.424 138.424 0 0 0 12.744-3.936c35.712-13 60.968-38.808 66.2-64.304z" fill="#FFFFFF" p-id="2600"></path><path d="M877.944 773.68l-35.288-11.872 19.4-31.776c-20.4-16.176-56.328-19.712-92.048-6.712-4.936 1.792-9.656 3.848-14.16 6.096 0.232-3.232 0.36-6.512 0.36-9.84 0-38.008-15.616-70.568-37.784-84.2L695.2 664.48l-23.224-29.104c-22.176 13.632-37.784 46.192-37.784 84.2 0 3.328 0.128 6.608 0.36 9.84a135.904 135.904 0 0 0-14.16-6.096c-35.72-13-71.648-9.464-92.048 6.712l19.4 31.776-35.288 11.872c5.232 25.496 30.48 51.304 66.2 64.304 4.256 1.552 8.512 2.856 12.744 3.936-1.072 1.128-2.136 2.28-3.184 3.456-25.272 28.392-35.248 63.096-27.752 88.024l36.696-6.296-2 37.176c25.632 4.552 58.936-9.384 84.208-37.784a133.552 133.552 0 0 0 15.832-21.848 133.08 133.08 0 0 0 15.832 21.848c25.272 28.392 58.576 42.336 84.208 37.784l-2-37.176 36.696 6.296c7.496-24.928-2.48-59.624-27.752-88.024a131.312 131.312 0 0 0-3.184-3.456 138.424 138.424 0 0 0 12.744-3.936c35.712-13 60.968-38.808 66.2-64.304z" fill="#FFD7E5" p-id="2601"></path><path d="M220.432 690.816a8 8 0 0 0 9.728-5.784l10.72-42.168a8 8 0 0 0-15.512-3.936l-10.72 42.168a8 8 0 0 0 5.784 9.72z" fill="#3A2C60" p-id="2602"></path><path d="M494.136 423.64l-197.72-50.248a100.616 100.616 0 0 0-15.448-29.008c28.608-10.832 49.96-32.224 54.592-54.808a7.984 7.984 0 0 0-5.288-9.184l-17.608-5.928 9.68-15.856a8 8 0 0 0-1.856-10.44c-18.336-14.536-49.096-17.064-78.384-6.416-1.208-29.28-13.792-55.192-32.744-66.848a8.024 8.024 0 0 0-10.448 1.832l-11.584 14.52-11.592-14.52a8.024 8.024 0 0 0-10.448-1.824c-18.952 11.656-31.528 37.56-32.736 66.848-29.296-10.648-60.04-8.136-78.384 6.416a8 8 0 0 0-1.856 10.44l9.68 15.856-17.616 5.928a8 8 0 0 0-5.288 9.192c4.632 22.584 25.992 43.976 54.592 54.808-16.792 22.064-23.648 48.256-17.528 68.592a7.944 7.944 0 0 0 9.016 5.576l18.312-3.144-1 18.552a8 8 0 0 0 6.592 8.304c15.568 2.776 33.52-2.064 49.936-12.648l79.512 157.528-5.832 22.952a8 8 0 0 0 15.504 3.936l6.568-25.856a7.968 7.968 0 0 0-0.616-5.576L136.336 349.216l347.544 88.328-214.944 148.816c-1.584 1.104-2.72 2.736-3.2 4.608l-30.312 119.264a114.216 114.216 0 0 0 12.616 87.088l35.704 61.232-172.648-44.512 60.704-36.104a114.872 114.872 0 0 0 50.776-63.912 8 8 0 1 0-15.24-4.856 98.872 98.872 0 0 1-43.712 55.016l-60.712 36.104a16.32 16.32 0 0 0-7.824 16.408 16.304 16.304 0 0 0 12.16 13.504l172.552 43.856a16.312 16.312 0 0 0 17.136-6.072 16.312 16.312 0 0 0 0.952-18.152l-36.104-60.704a98.32 98.32 0 0 1-10.856-74.968l29.568-116.36 217.088-150.328c4.552-2.704 7-7.84 6.24-13.08a12.984 12.984 0 0 0-9.688-10.752z m-342.384-8.408c-10.872 7.32-22.488 11.616-32.872 11.816l0.968-17.984 10.888-12.232a8 8 0 1 0-11.952-10.64l-10.888 12.232-17.752 3.048c-1.576-16.192 6.304-36.616 20.968-53.096l0.792-0.864 5.952-1.624c0.144 1.792 0.544 3.536 1.448 5.04l32.448 64.304z m-17.76-83.12c-0.272-0.064-0.536-0.032-0.808-0.08-1.624-3.456-5.416-5.448-9.208-4.392l-16.272 4.44a95.592 95.592 0 0 1-7.168-2.216c-20.736-7.552-37.36-21.784-43.656-36.792l17.072-5.744 15.384 5.6a7.992 7.992 0 0 0 10.248-4.784 7.992 7.992 0 0 0-4.784-10.248l-15.384-5.6-9.392-15.376c14.48-7.448 36.352-7.664 57.096-0.112 3 1.088 5.976 2.416 8.904 3.832l12.592 12.584a8.008 8.008 0 0 0 11.32-11.328l-11.312-11.304c-0.064-1.392-0.152-2.768-0.152-4.184 0-22.064 7.688-42.56 19.64-53.608l11.232 14.08v16.368a8 8 0 0 0 16 0V206.88l11.232-14.072c11.952 11.048 19.64 31.536 19.64 53.608 0 1.392-0.096 2.744-0.152 4.104l-11.352 11.336a8 8 0 1 0 11.32 11.328l12.496-12.488c2.96-1.44 5.984-2.776 9.024-3.888 20.736-7.544 42.616-7.336 57.088 0.12l-9.384 15.376-15.384 5.6a8 8 0 1 0 5.464 15.032l15.384-5.6 17.072 5.744c-6.296 15.008-22.92 29.24-43.664 36.792-2.392 0.872-4.792 1.552-7.176 2.216l-16.272-4.44a8 8 0 0 0-4.208 15.44l16.288 4.44 0.784 0.856a90.88 90.88 0 0 1 13.504 20.096l-143.056-36.368zM953.064 800.296l-60.704-36.104a96.808 96.808 0 0 1-8.552-5.76c0.784-2.368 1.48-4.752 1.968-7.144a7.984 7.984 0 0 0-5.288-9.184l-25.784-8.672 14.176-23.224a8 8 0 0 0-1.856-10.44c-6.76-5.36-14.976-9.264-24-12l-25.568-100.616 118.968-235.728a12.976 12.976 0 0 0-0.768-14.472 13.024 13.024 0 0 0-13.656-4.832l-360.152 91.52c-5.136 1.304-8.936 5.528-9.696 10.768s1.688 10.368 5.776 12.784l217.544 150.624 22.04 86.712a139.816 139.816 0 0 0-33.336 8.44c-0.696-38.704-16.856-73.208-41.568-88.408a8 8 0 0 0-10.44 1.824l-16.976 21.264-16.976-21.264a8.016 8.016 0 0 0-10.44-1.824c-24.72 15.2-40.88 49.704-41.576 88.408-1.024-0.4-2.056-0.792-3.088-1.168-37.384-13.616-76.528-10.472-99.752 7.96a8 8 0 0 0-1.856 10.44l14.176 23.224-25.792 8.672a8 8 0 0 0-5.288 9.192c5.96 29.056 33.944 56.616 71.296 70.208l1.336 0.48c-22.856 28.64-32.432 63.168-24.448 89.728 1.168 3.872 5.088 6.264 9.016 5.576l26.824-4.6-1.472 27.168c-0.208 4.032 2.616 7.6 6.592 8.304 29.232 5.216 65.168-10.648 91.584-40.336 3.52-3.96 6.824-8.096 9.848-12.368 3.024 4.264 6.32 8.4 9.848 12.368 23.096 25.952 53.456 41.32 80.232 41.32 3.864 0 7.664-0.32 11.344-0.976a8 8 0 0 0 6.592-8.304l-1.464-27.168 26.824 4.6c3.904 0.68 7.848-1.704 9.016-5.584 4.696-15.632 3.16-34.04-3.44-52.376l114.576-29.12a16.32 16.32 0 0 0 12.16-13.504 16.24 16.24 0 0 0-7.8-16.408zM787.048 586.36L572.08 437.552l347.544-88.328-117.808 233.384a7.96 7.96 0 0 0-0.608 5.576l24.408 96.04a112.768 112.768 0 0 0-11.848-0.632L790.24 590.976a7.984 7.984 0 0 0-3.192-4.616z m36.736 313.872l-26.432-4.536-14.744-16.56a8.008 8.008 0 0 0-11.952 10.64l14.736 16.552 1.44 26.784c-22.184 0.68-49.528-13.128-69.832-35.928a125.656 125.656 0 0 1-13.808-18.88v-22.6a8 8 0 1 0-16 0v22.592a124.488 124.488 0 0 1-13.808 18.88c-20.304 22.808-47.592 36.448-69.832 35.928l1.44-26.784 14.728-16.552a8 8 0 0 0-11.952-10.64l-14.736 16.56-26.432 4.536c-3.224-22.16 7.28-50.728 27.576-73.528 0.504-0.568 1.024-1.112 1.536-1.664l21.848-5.96a8 8 0 1 0-4.208-15.44l-21.856 5.96a129.44 129.44 0 0 1-10.128-3.128c-28.688-10.44-51.504-30.608-59.168-51.632l25.416-8.552 20.824 7.576a7.992 7.992 0 0 0 10.248-4.784 8 8 0 0 0-4.784-10.256l-20.824-7.576-13.968-22.888c19.392-11.176 49.824-11.96 78.504-1.52 4.096 1.496 8.16 3.288 12.152 5.232l16.72 16.704a7.976 7.976 0 0 0 11.312-0.008 8 8 0 0 0 0-11.32l-15.408-15.392c-0.112-2.144-0.232-4.288-0.232-6.48 0-30.528 11.152-58.856 28.288-73.256l16.728 20.96v22.168a8 8 0 1 0 16 0v-22.16l16.728-20.96c17.144 14.4 28.28 42.728 28.28 73.256 0 2.16-0.128 4.272-0.232 6.384l-15.44 15.424a8 8 0 0 0 11.312 11.328l16.592-16.576a128.944 128.944 0 0 1 12.304-5.296c28.68-10.44 59.128-9.656 78.512 1.52l-13.976 22.888-20.824 7.576a8 8 0 1 0 5.464 15.04l20.824-7.576 25.416 8.552c-7.672 21.024-30.48 41.192-59.168 51.632-3.288 1.192-6.704 2.192-10.136 3.128l-21.856-5.96a8 8 0 1 0-4.208 15.44l21.864 5.96c0.512 0.552 1.032 1.096 1.528 1.656 20.336 22.808 30.84 51.376 27.624 73.536z m3.776-56.168a137.712 137.712 0 0 0-14.416-22.08l1.328-0.48c27.744-10.096 50.296-27.904 62.52-48.296 2.32 1.664 4.712 3.256 7.192 4.736l60.608 36.76-117.232 29.36zM521.576 374.144a8 8 0 0 0 8-8V270.04a8 8 0 1 0-16 0v96.104a8 8 0 0 0 8 8zM467.024 378.72a7.984 7.984 0 0 0 11.136 1.968 8 8 0 0 0 1.976-11.136l-56-80.104a8 8 0 1 0-13.112 9.16l56 80.112zM619.024 289.456l-56 80.104a8 8 0 0 0 13.104 9.168l56-80.104a8 8 0 0 0-13.104-9.168zM658.976 202.856a8 8 0 0 0 6.088 7.768l35.952 8.84a65.704 65.704 0 0 1 48.264 48.256l8.84 35.96a8 8 0 0 0 15.536 0l8.84-35.96a65.728 65.728 0 0 1 48.264-48.256l35.96-8.84a8.008 8.008 0 0 0 0-15.536l-35.96-8.84a65.728 65.728 0 0 1-48.264-48.256l-8.84-35.96a8 8 0 0 0-15.536 0l-8.84 35.96a65.704 65.704 0 0 1-48.264 48.256l-35.952 8.84a8 8 0 0 0-6.088 7.768z m45.864-1.072a81.656 81.656 0 0 0 59.968-59.976l1.08-4.368 1.08 4.368a81.68 81.68 0 0 0 59.968 59.976l4.376 1.072-4.376 1.072a81.68 81.68 0 0 0-59.968 59.976l-1.08 4.368-1.08-4.368a81.656 81.656 0 0 0-59.968-59.976l-4.376-1.072 4.376-1.072z" fill="#3A2C60" p-id="2603"></path><path d="M415.144 744.248l-23.744-5.84a40.672 40.672 0 0 1-29.872-29.88l-5.84-23.744a8 8 0 0 0-15.536 0l-5.84 23.744a40.696 40.696 0 0 1-29.872 29.88l-23.744 5.84a8 8 0 0 0 0 15.536l23.744 5.84a40.68 40.68 0 0 1 29.872 29.872l5.84 23.744a8 8 0 0 0 15.536 0l5.84-23.744a40.68 40.68 0 0 1 29.872-29.872l23.744-5.84a8 8 0 0 0 0-15.536z m-67.232 41.16a56.568 56.568 0 0 0-33.392-33.392 56.592 56.592 0 0 0 33.392-33.392 56.552 56.552 0 0 0 33.392 33.392 56.592 56.592 0 0 0-33.392 33.392zM530.344 123.96l23.744 5.84a40.696 40.696 0 0 1 29.888 29.872l5.832 23.744a7.984 7.984 0 0 0 15.536 0l5.84-23.744a40.672 40.672 0 0 1 29.88-29.872l23.744-5.84a8.008 8.008 0 0 0 0-15.536l-23.744-5.84a40.688 40.688 0 0 1-29.88-29.88l-5.84-23.744a8 8 0 0 0-15.536 0l-5.832 23.744a40.704 40.704 0 0 1-29.888 29.88l-23.744 5.84a8.008 8.008 0 0 0 0 15.536z m67.232-41.168a56.584 56.584 0 0 0 33.4 33.392 56.56 56.56 0 0 0-33.4 33.392 56.552 56.552 0 0 0-33.392-33.392 56.568 56.568 0 0 0 33.392-33.392z" fill="#3A2C60" p-id="2604"></path><path d="M695.192 790.264a8 8 0 0 1-8-8v-62.936a8 8 0 1 1 16 0v62.936a8 8 0 0 1-8 8z" fill="#FA759E" p-id="2605"></path><path d="M695.192 719.328m-11.024 0a11.024 11.024 0 1 0 22.048 0 11.024 11.024 0 1 0-22.048 0Z" fill="#FA759E" p-id="2606"></path><path d="M695.2 790.272a7.792 7.792 0 0 1-2.08-0.28l-57.832-15.496a8 8 0 0 1 4.144-15.456l57.832 15.496a8 8 0 0 1-2.064 15.736z" fill="#FA759E" p-id="2607"></path><path d="M637.368 766.776m-11.024 0a11.024 11.024 0 1 0 22.048 0 11.024 11.024 0 1 0-22.048 0Z" fill="#FA759E" p-id="2608"></path><path d="M695.184 790.272a8 8 0 0 1-2.064-15.736l57.824-15.496a8 8 0 0 1 4.144 15.456l-57.824 15.496a8.128 8.128 0 0 1-2.08 0.28z" fill="#FA759E" p-id="2609"></path><path d="M753.016 766.776m-11.024 0a11.024 11.024 0 1 0 22.048 0 11.024 11.024 0 1 0-22.048 0Z" fill="#FA759E" p-id="2610"></path><path d="M731.184 838.104a7.984 7.984 0 0 1-6.4-3.192l-35.984-47.84a8 8 0 0 1 1.576-11.2 8.008 8.008 0 0 1 11.2 1.584l35.984 47.84a8 8 0 0 1-6.376 12.808z" fill="#FA759E" p-id="2611"></path><path d="M731.184 830.104m-11.024 0a11.024 11.024 0 1 0 22.048 0 11.024 11.024 0 1 0-22.048 0Z" fill="#FA759E" p-id="2612"></path><path d="M659.192 838.104a8 8 0 0 1-6.384-12.808l35.992-47.84a8 8 0 1 1 12.776 9.616l-35.992 47.84a7.96 7.96 0 0 1-6.392 3.192z" fill="#FA759E" p-id="2613"></path><path d="M659.2 830.104m-11.024 0a11.024 11.024 0 1 0 22.048 0 11.024 11.024 0 1 0-22.048 0Z" fill="#FA759E" p-id="2614"></path><path d="M695.192 782.264m-16 0a16 16 0 1 0 32 0 16 16 0 1 0-32 0Z" fill="#FA759E" p-id="2615"></path></svg>