<?xml version="1.0" standalone="no"?><!DOCTYPE svg PUBLIC "-//W3C//DTD SVG 1.1//EN" "http://www.w3.org/Graphics/SVG/1.1/DTD/svg11.dtd"><svg t="1568866888466" class="icon" viewBox="0 0 1024 1024" version="1.1" xmlns="http://www.w3.org/2000/svg" p-id="2732" xmlns:xlink="http://www.w3.org/1999/xlink" width="200" height="200"><defs><style type="text/css"></style></defs><path d="M334.5 727.9s-44.8-13.5-62.1-57.8c0 0-78 6.7-79-90.6 0 0 0.9-9.9 25.5-14.5s44.6-93.3 57.3-93.5c0 0-50.1-25-50.1-62.6 0 0 42.4-40.5 133-15.4 0 0 252.4-87.7 342 87.7 71.1 139.1-99.2 307.3-99.2 307.3H520s11.6-25 10.6-46.2c0 0-55.9 18.3-107.9 1 0 0-8.7 37.2-22.2 45.3h-78s12.5-39.5 12-60.7z" fill="#F2C5B3" p-id="2733"></path><path d="M601.9 797.5H520c-3.1 0-5.9-1.6-7.5-4.1-1.6-2.6-1.9-5.8-0.6-8.6 0.1-0.2 6.9-15.1 9.1-30.7-18.6 4.2-55.2 9.9-92 0.3-3.8 13-11.8 34.5-23.8 41.8-1.4 0.8-3 1.3-4.6 1.3h-78c-2.9 0-5.5-1.4-7.2-3.7-1.7-2.3-2.2-5.3-1.3-8 0.1-0.3 9.9-31.5 11.4-51.8-13.3-5.5-43.2-21.2-58.9-55-11.1-0.4-33.8-3.5-52.8-20.7-19.1-17.3-28.9-43.8-29.3-78.8v-0.9c0.4-3.9 3.8-17.1 32.8-22.4 9.3-1.7 23.1-34.9 30.6-52.8 5.4-13 9.6-23.1 13.8-30-16-10.3-44.5-33.2-44.5-64.5 0-2.5 1-4.8 2.8-6.5 1.9-1.8 46.3-42.9 138.9-18.3 28-8.9 263.2-77.3 350.2 92.9 73.2 143.3-93.8 310.7-100.9 317.8-1.7 1.8-4 2.7-6.3 2.7zM533 779.6h65c20.6-21.5 157.6-171.8 95-294.3-84.9-166.4-328.5-84.1-331-83.3-1.7 0.6-3.6 0.7-5.3 0.2-71.8-19.9-110.6 2.9-121.4 10.8 3.5 29.4 44.5 50.3 44.9 50.6 3.7 1.9 5.6 6 4.7 10-0.7 3.2-3.2 5.7-6.2 6.6-3.4 3.8-9.7 19-14.4 30.1-12.3 29.5-25 60.1-43.9 63.5-11.8 2.2-16.8 5.6-18.2 7.3 0.6 28.9 8.4 50.4 23.4 63.9 19.9 18 45.6 16 45.9 16 3.9-0.4 7.7 2 9.1 5.7 15.6 39.8 56 52.4 56.4 52.5 3.7 1.1 6.3 4.5 6.4 8.4 0.4 15.2-5.2 38.1-9 51.9h63.1c6.5-6.2 13.5-25.9 16.4-38.4 0.6-2.5 2.2-4.6 4.4-5.8 2.2-1.2 4.8-1.5 7.2-0.7 48.5 16.1 101.8-0.8 102.3-1 2.7-0.9 5.6-0.5 7.9 1.1 2.3 1.6 3.7 4.2 3.9 7 0.5 13.6-3.2 27.9-6.6 37.9zM202 581.7z" fill="#603813" p-id="2734"></path><path d="M507.4 404.6c31.1-13.7 52.8-44.7 52.8-80.8 0-48.8-39.5-88.3-88.3-88.3s-88.3 39.5-88.3 88.3c0 36 21.6 66.9 52.5 80.7" fill="#F9C933" p-id="2735"></path><path d="M507.4 413.6c-3.4 0-6.7-2-8.2-5.3-2-4.5 0.1-9.8 4.6-11.8 28.8-12.7 47.5-41.2 47.5-72.6 0-43.8-35.6-79.4-79.4-79.4s-79.4 35.6-79.4 79.4c0 31.3 18.5 59.7 47.1 72.5 4.5 2 6.6 7.3 4.5 11.8-2 4.5-7.3 6.6-11.8 4.5-35.1-15.6-57.8-50.5-57.8-88.9 0-53.7 43.7-97.3 97.3-97.3s97.3 43.6 97.3 97.3c0 38.5-22.8 73.5-58.2 89-1.1 0.5-2.3 0.8-3.5 0.8z" fill="#603813" p-id="2736"></path><path d="M551.9 432.7c-1.7 0-3.3-0.5-4.8-1.4-13-8.4-27.1-14.4-41.7-18-4.8-1.2-7.8-6-6.6-10.8 1.2-4.8 6-7.8 10.8-6.6 16.6 4.1 32.5 10.9 47.2 20.4 4.2 2.7 5.4 8.2 2.7 12.4-1.8 2.6-4.7 4-7.6 4z" fill="#603813" p-id="2737"></path><path d="M507.4 413.6c-0.7 0-1.4-0.1-2.1-0.3-21.3-5.2-43.9-5.2-67.4-0.1-4.9 1.1-9.6-2-10.7-6.8-1.1-4.8 2-9.6 6.8-10.7 26.1-5.7 51.5-5.6 75.4 0.2 4.8 1.2 7.8 6 6.6 10.8-0.9 4.1-4.6 6.9-8.6 6.9z" fill="#603813" p-id="2738"></path><path d="M384.8 432.7c-3 0-5.9-1.5-7.6-4.3-2.6-4.2-1.3-9.7 2.9-12.3 0.9-0.6 22.3-13.5 54-20.5 4.8-1.1 9.6 2 10.7 6.8 1.1 4.8-2 9.6-6.8 10.7-28.8 6.3-48.2 18.1-48.4 18.2-1.6 1-3.2 1.4-4.8 1.4z" fill="#603813" p-id="2739"></path><path d="M307.5 526m-18.7 0a18.7 18.7 0 1 0 37.4 0 18.7 18.7 0 1 0-37.4 0Z" fill="#603813" p-id="2740"></path><path d="M786.5 595c-14 0-28.5-6.9-36.7-18.5-9.5-13.3-8.8-29.8 1.7-45.5-11.7 0.6-22.5 2.4-28.6 3.8-4.8 1.1-9.6-1.9-10.7-6.8-1.1-4.8 1.9-9.6 6.8-10.7 3.7-0.8 24.5-5.3 46.5-4.4 18.6-22.1 32.3-28.2 63.9-33 4.9-0.7 9.5 2.6 10.2 7.5 0.7 4.9-2.6 9.5-7.5 10.2-22.1 3.4-33.2 6.9-45 18.2 7.8 2 15.1 5.2 21 10 9.5 7.7 14.3 18.8 14.1 32.1-0.3 17.8-9 30.7-23.9 35.3-3.9 1.3-7.8 1.8-11.8 1.8z m-13.1-63.4c-1.8 2.4-3.8 4.9-5.8 7.7-5.2 7-9.9 17.4-3.2 26.8 5.9 8.4 19 12.9 28.4 10 7.3-2.3 11.1-8.5 11.3-18.5 0.1-7.9-2.2-13.6-7.4-17.9-5.7-4.5-14.1-7-23.3-8.1z" fill="#603813" p-id="2741"></path><path d="M478.4 309.6v-24.9c5.9 1.7 11.5 4.7 16.2 9.4l9.5-12.5c-6.8-6.5-15.5-10.7-25.7-12.5v-15.3h-3.2v-0.4h-11.5v14.9c-18.6 1.6-30.3 13.2-30.3 27.9 0 18.7 15.6 24 30.3 27.7v27.9c-10.4-1.5-18.7-7-24-12.9l-9.5 13.1c7.7 7.9 18.7 13.8 33.5 14.9v13.9h14.8v-14.4c19.2-2.9 28-15.1 28-29 0-17.9-14-23.9-28.1-27.8z m-14.8-3.8c-7.6-2.3-13.1-5.2-13.1-10.8 0-6.3 5-10.8 13.1-11.8v22.6z m14.8 45.6v-23.2c6.2 2.3 10.7 5.4 10.7 11 0 4.9-3.2 10.1-10.7 12.2z" fill="#603813" p-id="2742"></path></svg>